HIERARCHY
ROOT Hips
{
	OFFSET -0.001795 -0.223333 0.028219
	CHANNELS 6 Xposition Yposition Zposition Zrotation Yrotation Xrotation 
	JOINT LeftUpLeg
	{
		OFFSET 0.069520 -0.091406 -0.006815
		CHANNELS 3 Zrotation Yrotation Xrotation
		JOINT LeftLeg
		{
			OFFSET 0.034277 -0.375199 -0.004496
			CHANNELS 3 Zrotation Yrotation Xrotation
			JOINT LeftFoot
			{
				OFFSET -0.013596 -0.397961 -0.043693
				CHANNELS 3 Zrotation Yrotation Xrotation
				JOINT LeftToe
				{
					OFFSET 0.026358 -0.055791 0.119288
					CHANNELS 3 Zrotation Yrotation Xrotation
					End Site
					{
						OFFSET 0.000000 0.000000 0.000000
					}
				}
			}
		}
	}
	JOINT RightUpLeg
	{
		OFFSET -0.067670 -0.090522 -0.004320
		CHANNELS 3 Zrotation Yrotation Xrotation
		JOINT RightLeg
		{
			OFFSET -0.038290 -0.382569 -0.008850
			CHANNELS 3 Zrotation Yrotation Xrotation
			JOINT RightFoot
			{
				OFFSET 0.015774 -0.398415 -0.042312
				CHANNELS 3 Zrotation Yrotation Xrotation
				JOINT RightToe
				{
					OFFSET -0.025372 -0.048144 0.123348
					CHANNELS 3 Zrotation Yrotation Xrotation
					End Site
					{
						OFFSET 0.000000 0.000000 0.000000
					}
				}
			}
		}
	}
	JOINT Spine
	{
		OFFSET -0.002533 0.108963 -0.026696
		CHANNELS 3 Zrotation Yrotation Xrotation
		JOINT Spine1
		{
			OFFSET 0.005487 0.135180 0.001092
			CHANNELS 3 Zrotation Yrotation Xrotation
			JOINT Spine2
			{
				OFFSET 0.001457 0.052922 0.025425
				CHANNELS 3 Zrotation Yrotation Xrotation
				JOINT Neck
				{
					OFFSET -0.002778 0.213870 -0.042857
					CHANNELS 3 Zrotation Yrotation Xrotation
					JOINT Head
					{
						OFFSET 0.005152 0.064970 0.051349
						CHANNELS 3 Zrotation Yrotation Xrotation
						End Site
						{
							OFFSET 0.000000 0.000000 0.000000
						}
					}
				}
				JOINT LeftShoulder
				{
					OFFSET 0.078845 0.121749 -0.034090
					CHANNELS 3 Zrotation Yrotation Xrotation
					JOINT LeftArm
					{
						OFFSET 0.090977 0.030469 -0.008868
						CHANNELS 3 Zrotation Yrotation Xrotation
						JOINT LeftForeArm
						{
							OFFSET 0.259612 -0.012772 -0.027456
							CHANNELS 3 Zrotation Yrotation Xrotation
							JOINT LeftHand
							{
								OFFSET 0.249234 0.008986 -0.001171
								CHANNELS 3 Zrotation Yrotation Xrotation
								End Site
								{
									OFFSET 0.000000 0.000000 0.000000
								}
							}
						}
					}
				}
				JOINT RightShoulder
				{
					OFFSET -0.081759 0.118833 -0.038615
					CHANNELS 3 Zrotation Yrotation Xrotation
					JOINT RightArm
					{
						OFFSET -0.096012 0.032551 -0.009143
						CHANNELS 3 Zrotation Yrotation Xrotation
						JOINT RightForeArm
						{
							OFFSET -0.253742 -0.013329 -0.021401
							CHANNELS 3 Zrotation Yrotation Xrotation
							JOINT RightHand
							{
								OFFSET -0.255298 0.007772 -0.005559
								CHANNELS 3 Zrotation Yrotation Xrotation
								End Site
								{
									OFFSET 0.000000 0.000000 0.000000
								}
							}
						}
					}
				}
			}
		}
	}
}
MOTION
Frames: 18
Frame Time: 0.050000
0.013496 0.959755 -0.028332 -1.891092 -21.114596 0.069593 6.343078 1.007241 10.530399 -2.385290 0.648162 -11.057638 6.960370 14.013327 21.642994 0.000000 0.000000 0.000000 -6.850734 0.485902 2.358609 3.922433 -0.192346 -4.841427 4.495019 -3.154147 18.513879 0.000000 0.000000 0.000000 4.987885 -0.141045 1.465164 0.032062 0.274904 -24.767705 -1.863074 -5.082573 29.441432 -3.797243 0.793606 -28.362546 0.000000 0.000000 0.000000 26.686764 -19.103051 -0.886843 21.498724 -44.702033 -5.386285 22.276032 -0.830384 0.360199 0.000000 0.000000 0.000000 17.136592 -2.466666 -6.864546 58.250666 0.368557 -7.956472 9.816839 27.084850 2.128705 0.000000 0.000000 0.000000 
0.013720 0.959523 -0.028795 -1.634456 -19.986159 0.299374 6.311749 0.894816 9.730883 -2.483470 0.624913 -10.661702 6.629398 13.654898 21.311567 0.000000 0.000000 0.000000 -7.246718 0.512533 1.971634 3.883253 -0.211243 -4.542687 3.734006 -4.294634 18.722025 0.000000 0.000000 0.000000 4.933776 -0.130816 1.282910 -0.621636 0.424504 -24.489115 -1.672938 -4.821431 29.281448 -3.418152 0.739147 -27.775368 0.000000 0.000000 0.000000 24.626479 -18.079754 -0.401239 20.070492 -47.366869 -5.832063 26.274285 -3.282716 -0.058081 0.000000 0.000000 0.000000 17.475712 -2.886651 -6.924407 58.197292 0.098573 -8.055437 10.605221 28.107429 2.464633 0.000000 0.000000 0.000000 
0.013716 0.959119 -0.029336 -1.211656 -18.892638 0.503217 6.261424 0.799578 9.030543 -2.818992 0.623185 -10.385852 6.384933 13.417627 21.025999 0.000000 0.000000 0.000000 -7.725584 0.545283 1.827756 4.166716 -0.229449 -4.485550 3.297574 -4.476987 18.024633 0.000000 0.000000 0.000000 4.946242 -0.094698 0.803736 -1.113090 0.557956 -24.423379 -2.041676 -4.348293 29.502282 -2.783008 0.550157 -27.648420 0.000000 0.000000 0.000000 21.648904 -17.515265 0.384668 16.265162 -49.111022 -5.419725 31.288553 -8.062807 -1.194090 0.000000 0.000000 0.000000 18.105441 -3.021628 -6.913307 58.275119 0.237393 -7.977710 10.735891 28.623649 2.648377 0.000000 0.000000 0.000000 
0.013373 0.958573 -0.029870 -0.976016 -17.267301 0.631780 6.462806 0.701058 8.494471 -3.091763 0.616755 -10.202957 5.832820 12.818886 20.877936 0.000000 0.000000 0.000000 -7.658649 0.507386 1.675291 3.966713 -0.248354 -4.298375 2.047070 -6.325732 18.211898 0.000000 0.000000 0.000000 5.150087 -0.040337 0.143493 -1.849861 0.734689 -23.795709 -1.973475 -3.575300 29.545027 -1.481137 0.073941 -26.673103 0.000000 0.000000 0.000000 17.594914 -16.454745 1.406328 10.497481 -52.384794 -4.582098 38.747909 -14.360776 -3.464253 0.000000 0.000000 0.000000 18.730164 -3.351018 -6.785838 57.934307 0.287546 -7.889199 10.988638 28.858357 2.899966 0.000000 0.000000 0.000000 
0.012678 0.958105 -0.030244 -0.755803 -16.591646 0.854137 6.405427 0.650272 8.089269 -3.210318 0.619336 -10.288406 5.808622 12.850299 20.616211 0.000000 0.000000 0.000000 -7.793099 0.511137 1.614950 4.134467 -0.260472 -4.175023 1.583988 -6.679376 17.527188 0.000000 0.000000 0.000000 5.500107 0.018015 -0.509882 -2.816806 0.968113 -23.061929 -1.937268 -2.467212 29.768518 -0.082324 -0.460582 -27.295338 0.000000 0.000000 0.000000 12.786831 -15.164497 2.416450 -0.774504 -52.528795 -1.059392 48.353305 -25.455079 -8.704951 0.000000 0.000000 0.000000 19.147189 -3.788628 -6.723434 58.502728 0.725160 -7.817349 11.330873 29.070350 3.154470 0.000000 0.000000 0.000000 
0.011804 0.957461 -0.030517 -0.758476 -15.265477 0.907269 6.835404 0.571642 7.696626 -3.474268 0.622986 -10.403901 5.245437 12.223058 20.743897 0.000000 0.000000 0.000000 -7.318553 0.435042 1.906456 3.847078 -0.268508 -4.306961 0.460372 -8.476718 18.040259 0.000000 0.000000 0.000000 6.047794 0.040868 -0.724020 -3.896806 1.261386 -22.567603 -1.701337 -1.446473 29.996576 1.894020 -1.300307 -27.091259 0.000000 0.000000 0.000000 6.393804 -12.995881 3.375609 -15.477271 -50.376635 3.320331 59.056030 -41.076750 -18.969664 0.000000 0.000000 0.000000 20.459918 -4.665706 -7.034203 57.500060 0.436835 -7.780722 12.483136 29.818616 3.706571 0.000000 0.000000 0.000000 
0.010956 0.956688 -0.030503 -0.774634 -14.763494 1.286010 6.955747 0.514847 7.195611 -3.488148 0.614599 -10.312421 5.235978 12.226475 20.067986 0.000000 0.000000 0.000000 -7.532507 0.447499 2.061888 4.210778 -0.277328 -4.978787 0.233586 -8.599753 17.634173 0.000000 0.000000 0.000000 6.322623 0.089441 -1.243830 -4.519840 1.434267 -21.680075 -1.560214 0.189624 29.891375 3.406660 -1.776757 -27.598836 0.000000 0.000000 0.000000 1.232371 -11.162682 3.846759 -27.587244 -42.754375 4.871208 66.056552 -57.799612 -32.260301 0.000000 0.000000 0.000000 20.864177 -5.503578 -7.033271 57.960873 1.345128 -7.463462 12.631263 29.523618 3.893619 0.000000 0.000000 0.000000 
0.010257 0.955779 -0.030261 -0.975272 -13.268887 1.607502 7.508826 0.434217 6.921395 -3.722683 0.614708 -10.583468 4.780680 11.765789 19.979669 0.000000 0.000000 0.000000 -6.966897 0.359421 2.523535 4.155957 -0.289798 -5.562715 -1.015362 -10.394793 17.755098 0.000000 0.000000 0.000000 6.572715 0.125229 -1.647785 -5.169116 1.646047 -21.107291 -1.333019 0.657250 30.243758 5.126733 -2.572586 -27.253941 0.000000 0.000000 0.000000 -4.549219 -8.980145 3.938733 -34.427711 -34.029320 3.407558 65.419114 -74.382007 -43.369626 0.000000 0.000000 0.000000 21.537717 -5.996861 -7.049921 57.470941 1.501182 -7.379076 13.031617 29.838633 4.185788 0.000000 0.000000 0.000000 
0.009768 0.955207 -0.029889 -1.021109 -12.809911 1.897704 7.752680 0.392222 6.616572 -3.865240 0.614827 -10.559602 5.009635 12.131683 19.699110 0.000000 0.000000 0.000000 -6.831321 0.346440 2.316321 4.157824 -0.292805 -5.818980 -0.869846 -10.141175 17.887220 0.000000 0.000000 0.000000 6.603831 0.123624 -1.699816 -5.703277 1.808245 -21.000752 -0.774465 2.048214 30.804201 6.309734 -2.883350 -28.102062 0.000000 0.000000 0.000000 -8.318621 -6.838742 3.396203 -38.778083 -26.398138 1.266618 6.529895 -81.898783 2.635073 0.000000 0.000000 0.000000 21.674752 -6.586411 -6.904517 57.557662 2.128072 -7.221496 13.673715 29.795620 4.514035 0.000000 0.000000 0.000000 
0.009329 0.954263 -0.029773 -1.129061 -12.214732 2.207469 8.127059 0.350816 6.494471 -3.916696 0.619874 -11.096540 4.611543 11.610302 19.423828 0.000000 0.000000 0.000000 -6.531881 0.302147 2.745074 4.084246 -0.292804 -6.463168 -1.235319 -10.486853 17.413080 0.000000 0.000000 0.000000 6.709751 0.124159 -1.776057 -5.824367 1.856273 -20.732990 -0.866411 3.086710 30.994750 7.274830 -3.169127 -28.366740 0.000000 0.000000 0.000000 -11.049988 -4.959407 2.620057 -43.276645 -18.427399 -1.296660 -30.532300 -72.441677 29.642169 0.000000 0.000000 0.000000 22.715444 -6.268822 -6.520476 57.407714 2.843449 -6.915867 12.587569 29.534640 4.338206 0.000000 0.000000 0.000000 
0.008725 0.954180 -0.029953 -1.221021 -12.208814 2.483433 8.305937 0.317701 5.974805 -3.947833 0.610516 -10.576390 4.557348 11.451578 18.631586 0.000000 0.000000 0.000000 -6.374178 0.293205 2.677567 3.993480 -0.288918 -6.687457 -0.917322 -10.019815 17.541573 0.000000 0.000000 0.000000 6.403419 0.103561 -1.678127 -5.783943 1.838744 -21.167923 -0.742480 4.097575 31.473629 7.919580 -3.288591 -29.056210 0.000000 0.000000 0.000000 -13.032386 -3.762574 2.035702 -47.127936 -12.221453 -3.693989 -24.939376 -58.986921 19.476980 0.000000 0.000000 0.000000 23.392737 -5.795284 -6.060574 57.287830 3.873049 -6.499338 11.568026 29.274449 4.139049 0.000000 0.000000 0.000000 
0.007982 0.953956 -0.030444 -1.259839 -11.985132 2.731392 8.358151 0.298192 5.835069 -3.795397 0.604940 -10.821955 4.071156 10.784567 18.892709 0.000000 0.000000 0.000000 -6.271912 0.282206 2.717661 4.014162 -0.289378 -6.947313 -1.122000 -10.259031 17.368833 0.000000 0.000000 0.000000 6.314356 0.081304 -1.535267 -5.814251 1.855745 -20.763242 -1.051101 4.762718 30.922923 8.363650 -3.393314 -28.970399 0.000000 0.000000 0.000000 -14.180861 -3.690982 1.878661 -49.621372 -9.004051 -5.017771 -16.844991 -44.393994 10.179707 0.000000 0.000000 0.000000 24.017826 -5.251506 -5.599984 57.325099 4.915543 -5.989227 10.431765 28.264023 3.754898 0.000000 0.000000 0.000000 
0.007131 0.954239 -0.030924 -1.208717 -11.777651 2.639261 8.515181 0.290306 5.857721 -3.993780 0.608828 -10.723658 4.166064 10.926373 18.599747 0.000000 0.000000 0.000000 -6.162659 0.269931 2.638142 4.088190 -0.294877 -6.789069 -1.190322 -10.348087 17.394358 0.000000 0.000000 0.000000 6.122041 0.048183 -1.220490 -6.025504 1.913760 -21.086510 -0.886407 5.063070 31.163718 8.459436 -3.349261 -29.233804 0.000000 0.000000 0.000000 -15.252074 -3.596556 1.782287 -50.767124 -7.101653 -5.906579 -11.996957 -32.842334 5.605281 0.000000 0.000000 0.000000 24.096239 -4.610511 -5.063074 57.430676 6.357991 -5.381202 9.522410 27.656210 3.488937 0.000000 0.000000 0.000000 
0.006442 0.954172 -0.031263 -1.268061 -12.026080 2.493720 8.534449 0.324785 6.473208 -3.566504 0.607337 -11.323857 3.984169 10.704758 19.304522 0.000000 0.000000 0.000000 -5.860586 0.233018 3.040009 3.933513 -0.286206 -7.106832 -1.025908 -10.106081 17.346737 0.000000 0.000000 0.000000 6.142528 -0.026684 -0.438648 -5.994730 1.894892 -21.315382 -0.988536 5.892810 30.668228 8.641441 -3.338676 -29.087321 0.000000 0.000000 0.000000 -15.728709 -3.317570 1.487601 -51.855346 -5.047466 -6.785014 -7.974746 -26.090667 3.302977 0.000000 0.000000 0.000000 24.290745 -4.546982 -4.841764 57.828767 7.290182 -4.951056 8.233695 26.927182 3.134161 0.000000 0.000000 0.000000 
0.006002 0.954175 -0.031477 -1.223338 -12.018949 2.159656 8.678804 0.342718 6.855305 -3.781522 0.614994 -11.274469 3.994036 10.738958 19.358518 0.000000 0.000000 0.000000 -5.929356 0.228668 3.261569 4.295469 -0.291065 -7.022507 -1.117258 -10.331127 17.638001 0.000000 0.000000 0.000000 6.014832 -0.074238 0.112068 -6.189046 1.945569 -21.596429 -0.851023 6.333945 30.760877 8.924927 -3.431633 -29.094774 0.000000 0.000000 0.000000 -16.538091 -3.091391 1.276280 -52.044152 -3.234690 -7.574640 -5.840215 -22.380490 2.327566 0.000000 0.000000 0.000000 24.824373 -4.144016 -4.516996 57.472027 8.159018 -4.559955 7.472236 26.954032 2.997496 0.000000 0.000000 0.000000 
0.005910 0.954357 -0.031693 -1.260186 -12.207676 1.798021 8.665268 0.379973 7.409088 -3.731164 0.617318 -11.336891 3.840605 10.505169 19.358667 0.000000 0.000000 0.000000 -5.841513 0.207728 3.653780 4.229470 -0.291399 -6.768353 -0.994713 -10.147031 17.589901 0.000000 0.000000 0.000000 5.864185 -0.144452 0.933569 -6.190030 1.941868 -21.762603 -0.805353 7.006232 30.313613 9.082093 -3.446884 -28.876757 0.000000 0.000000 0.000000 -16.956644 -2.986101 1.071623 -51.883817 -1.780325 -8.106623 -4.556946 -20.577320 1.861444 0.000000 0.000000 0.000000 25.456996 -4.098799 -4.398655 57.198580 8.581260 -4.339348 6.465913 26.765191 2.777562 0.000000 0.000000 0.000000 
0.006099 0.954302 -0.031985 -1.195058 -12.040150 1.690957 8.734889 0.374517 7.428530 -3.896149 0.616029 -11.084874 3.667631 10.262737 19.204031 0.000000 0.000000 0.000000 -5.893513 0.205274 3.764266 4.262274 -0.294895 -6.739827 -1.099403 -10.296876 17.622478 0.000000 0.000000 0.000000 5.730418 -0.151812 1.042930 -6.214693 1.951433 -21.797469 -0.737867 7.152282 30.251518 9.199362 -3.465780 -28.893608 0.000000 0.000000 0.000000 -17.144812 -2.717263 0.858433 -51.695580 -0.904477 -8.421714 -4.614931 -20.222361 1.825357 0.000000 0.000000 0.000000 25.759246 -4.119874 -4.363472 56.988412 9.140382 -4.080359 5.772004 26.304430 2.584457 0.000000 0.000000 0.000000 
0.006343 0.954303 -0.032382 -1.185284 -11.817550 1.389625 8.858357 0.376578 7.622143 -4.101833 0.619065 -10.946280 3.417949 9.914311 18.986004 0.000000 0.000000 0.000000 -5.870788 0.187639 4.014454 4.127522 -0.299192 -6.544108 -1.023984 -10.159217 17.662327 0.000000 0.000000 0.000000 5.553749 -0.164567 1.262223 -6.196466 1.956028 -21.622053 -0.591232 7.146035 30.199319 9.318970 -3.542858 -28.685743 0.000000 0.000000 0.000000 -17.738527 -2.723388 0.804567 -51.373992 -0.792155 -8.417668 -4.429600 -20.226759 1.787096 0.000000 0.000000 0.000000 26.137589 -3.897845 -4.223161 56.725253 9.471262 -3.918920 4.967671 26.132734 2.395443 0.000000 0.000000 0.000000 
